<mxfile host="65bd71144e">
    <diagram id="Ux-dYknk1NQ_N8oXhWNZ" name="Page-1">
        <mxGraphModel dx="2224" dy="825" grid="1" gridSize="10" guides="1" tooltips="1" connect="1" arrows="1" fold="1" page="1" pageScale="1" pageWidth="850" pageHeight="1100" math="0" shadow="0">
            <root>
                <mxCell id="0"/>
                <mxCell id="1" parent="0"/>
                <mxCell id="3" value="exe (entrance point)" style="ellipse;whiteSpace=wrap;html=1;fontFamily=Consolas;fontSize=16;" parent="1" vertex="1">
                    <mxGeometry x="60" y="270" width="110" height="80" as="geometry"/>
                </mxCell>
                <mxCell id="4" value="Register the Scans &amp;amp; Validity Checks" style="endArrow=classic;html=1;rounded=0;fontSize=16;" parent="1" source="3" target="50" edge="1">
                    <mxGeometry x="-0.1772" y="-1" width="50" height="50" relative="1" as="geometry">
                        <mxPoint x="50" y="630" as="sourcePoint"/>
                        <mxPoint x="203.49704471186874" y="209.95986249962652" as="targetPoint"/>
                        <mxPoint y="1" as="offset"/>
                    </mxGeometry>
                </mxCell>
                <mxCell id="6" value="" style="endArrow=classic;html=1;rounded=0;" parent="1" source="51" target="50" edge="1">
                    <mxGeometry width="50" height="50" relative="1" as="geometry">
                        <mxPoint x="100.35585910897248" y="103.61565088599127" as="sourcePoint"/>
                        <mxPoint x="195.52263139368256" y="159.71919493746032" as="targetPoint"/>
                    </mxGeometry>
                </mxCell>
                <mxCell id="7" value="&lt;font style=&quot;font-size: 16px;&quot; color=&quot;#f5f5f5&quot;&gt;&lt;font style=&quot;font-size: 16px;&quot;&gt;Configure (&lt;/font&gt;&lt;span style=&quot;&quot;&gt;âš™)&lt;/span&gt;&lt;/font&gt;" style="edgeLabel;html=1;align=center;verticalAlign=middle;resizable=0;points=[];" parent="6" connectable="0" vertex="1">
                    <mxGeometry x="0.833" y="-4" relative="1" as="geometry">
                        <mxPoint x="-28" y="-27" as="offset"/>
                    </mxGeometry>
                </mxCell>
                <mxCell id="9" value="&lt;font style=&quot;font-size: 16px;&quot;&gt;Fetch Settings&lt;/font&gt;" style="endArrow=classic;html=1;rounded=0;" parent="1" source="53" target="50" edge="1">
                    <mxGeometry x="-0.3495" y="6" width="50" height="50" relative="1" as="geometry">
                        <mxPoint x="305.6899662723756" y="81.76511073742927" as="sourcePoint"/>
                        <mxPoint x="254.38843043398765" y="148.29504043581574" as="targetPoint"/>
                        <mxPoint as="offset"/>
                    </mxGeometry>
                </mxCell>
                <mxCell id="12" value="" style="endArrow=none;html=1;strokeWidth=2;" parent="1" edge="1">
                    <mxGeometry width="50" height="50" relative="1" as="geometry">
                        <mxPoint x="10" y="370" as="sourcePoint"/>
                        <mxPoint x="520" y="10" as="targetPoint"/>
                        <Array as="points">
                            <mxPoint x="520" y="370"/>
                        </Array>
                    </mxGeometry>
                </mxCell>
                <mxCell id="13" value="#Configuration" style="rounded=1;whiteSpace=wrap;html=1;fillColor=#fa6800;fontSize=29;fontFamily=Consolas;verticalAlign=top;align=center;fontColor=#000000;strokeColor=#100f0f;gradientColor=#07ca00;" parent="1" vertex="1">
                    <mxGeometry x="180" y="420" width="650" height="480" as="geometry"/>
                </mxCell>
                <mxCell id="14" value="data: &lt;font style=&quot;font-size: 20px;&quot;&gt;dict[str, dict[str, Any]]&lt;/font&gt;" style="swimlane;fontStyle=0;childLayout=stackLayout;horizontal=1;startSize=30;horizontalStack=0;resizeParent=1;resizeParentMax=0;resizeLast=0;collapsible=1;marginBottom=0;whiteSpace=wrap;html=1;strokeColor=#BD7000;fontFamily=Consolas;fontSize=20;fontColor=#000000;fillColor=#f0a30a;" parent="1" vertex="1">
                    <mxGeometry x="270" y="540" width="410" height="120" as="geometry"/>
                </mxCell>
                <mxCell id="15" value="name: {setting1: 0.4}" style="text;strokeColor=none;fillColor=none;align=left;verticalAlign=middle;spacingLeft=4;spacingRight=4;overflow=hidden;points=[[0,0.5],[1,0.5]];portConstraint=eastwest;rotatable=0;whiteSpace=wrap;html=1;fontFamily=Consolas;fontSize=20;fontColor=#000000;" parent="14" vertex="1">
                    <mxGeometry y="30" width="410" height="30" as="geometry"/>
                </mxCell>
                <mxCell id="16" value="name2: {setting1: None, setting2: 0}" style="text;strokeColor=none;fillColor=none;align=left;verticalAlign=middle;spacingLeft=4;spacingRight=4;overflow=hidden;points=[[0,0.5],[1,0.5]];portConstraint=eastwest;rotatable=0;whiteSpace=wrap;html=1;fontFamily=Consolas;fontSize=20;fontColor=#000000;" parent="14" vertex="1">
                    <mxGeometry y="60" width="410" height="30" as="geometry"/>
                </mxCell>
                <mxCell id="17" value="name: {repeats: 3, dst: &quot;10.0.0.1&quot;}" style="text;strokeColor=none;fillColor=none;align=left;verticalAlign=middle;spacingLeft=4;spacingRight=4;overflow=hidden;points=[[0,0.5],[1,0.5]];portConstraint=eastwest;rotatable=0;whiteSpace=wrap;html=1;fontFamily=Consolas;fontSize=20;fontColor=#000000;" parent="14" vertex="1">
                    <mxGeometry y="90" width="410" height="30" as="geometry"/>
                </mxCell>
                <mxCell id="21" style="edgeStyle=none;html=1;strokeWidth=2;fontFamily=Consolas;fontSize=20;fontColor=#000000;" parent="1" source="71" target="14" edge="1">
                    <mxGeometry relative="1" as="geometry">
                        <mxPoint x="192.5187083340818" y="638.3308388887892" as="sourcePoint"/>
                    </mxGeometry>
                </mxCell>
                <mxCell id="22" style="edgeStyle=none;html=1;strokeWidth=2;fontFamily=Consolas;fontSize=20;fontColor=#000000;" parent="1" source="14" target="20" edge="1">
                    <mxGeometry relative="1" as="geometry"/>
                </mxCell>
                <mxCell id="20" value="__getitem__" style="ellipse;whiteSpace=wrap;html=1;strokeColor=#100f0f;fontFamily=Consolas;fontSize=20;fontColor=#000000;fillColor=#fa6800;" parent="1" vertex="1">
                    <mxGeometry x="10" y="550" width="190" height="60" as="geometry"/>
                </mxCell>
                <mxCell id="60" value="User Inputs" style="edgeStyle=none;html=1;exitX=1;exitY=1;exitDx=0;exitDy=0;strokeWidth=1;fontFamily=Helvetica;fontSize=16;fontColor=#F5F5F5;" edge="1" parent="1" source="50" target="59">
                    <mxGeometry relative="1" as="geometry"/>
                </mxCell>
                <mxCell id="50" value="Configuration" style="ellipse;whiteSpace=wrap;html=1;fontFamily=Consolas;fontSize=16;fillColor=#00CC00;gradientColor=#fa6800;" vertex="1" parent="1">
                    <mxGeometry x="200" y="150" width="120" height="80" as="geometry"/>
                </mxCell>
                <mxCell id="51" value="Know&lt;br&gt;Screen" style="ellipse;whiteSpace=wrap;html=1;fontFamily=Consolas;fontSize=16;fillColor=#99FF33;" vertex="1" parent="1">
                    <mxGeometry x="10" y="70" width="80" height="80" as="geometry"/>
                </mxCell>
                <mxCell id="52" value="Save&lt;br&gt;Screen" style="ellipse;whiteSpace=wrap;html=1;fontFamily=Consolas;fontSize=16;fillColor=#99FF33;shadow=1;" vertex="1" parent="1">
                    <mxGeometry x="40" y="10" width="80" height="80" as="geometry"/>
                </mxCell>
                <mxCell id="53" value="TCP" style="ellipse;whiteSpace=wrap;html=1;fontFamily=Consolas;fontSize=16;fillColor=#e3c800;strokeColor=#B09500;fontColor=#000000;" vertex="1" parent="1">
                    <mxGeometry x="410" y="30" width="80" height="80" as="geometry"/>
                </mxCell>
                <mxCell id="54" value="Trace&lt;br&gt;Router" style="ellipse;whiteSpace=wrap;html=1;fontFamily=Consolas;fontSize=16;fillColor=#e3c800;strokeColor=#B09500;fontColor=#000000;shadow=1;" vertex="1" parent="1">
                    <mxGeometry x="350" y="10" width="80" height="80" as="geometry"/>
                </mxCell>
                <mxCell id="63" style="edgeStyle=orthogonalEdgeStyle;html=1;exitX=1;exitY=0.5;exitDx=0;exitDy=0;strokeWidth=2;fontFamily=Helvetica;fontSize=16;fontColor=#F5F5F5;" edge="1" parent="1" target="61">
                    <mxGeometry relative="1" as="geometry">
                        <mxPoint x="190" y="490" as="sourcePoint"/>
                    </mxGeometry>
                </mxCell>
                <mxCell id="64" style="edgeStyle=orthogonalEdgeStyle;html=1;strokeWidth=2;fontFamily=Helvetica;fontSize=16;fontColor=#F5F5F5;" edge="1" parent="1" source="65" target="14">
                    <mxGeometry relative="1" as="geometry">
                        <mxPoint x="190" y="490" as="sourcePoint"/>
                    </mxGeometry>
                </mxCell>
                <mxCell id="25" value="validity_checks: dict[str, Callable[Any -&amp;gt; bool]]" style="swimlane;fontStyle=0;childLayout=stackLayout;horizontal=1;startSize=30;horizontalStack=0;resizeParent=1;resizeParentMax=0;resizeLast=0;collapsible=1;marginBottom=0;whiteSpace=wrap;html=1;strokeColor=#BD7000;fontFamily=Consolas;fontSize=20;fontColor=#000000;fillColor=#f0a30a;" parent="1" vertex="1">
                    <mxGeometry x="270" y="770" width="550" height="90" as="geometry"/>
                </mxCell>
                <mxCell id="27" value="dst: is_ipv4" style="text;strokeColor=none;fillColor=none;align=left;verticalAlign=middle;spacingLeft=4;spacingRight=4;overflow=hidden;points=[[0,0.5],[1,0.5]];portConstraint=eastwest;rotatable=0;whiteSpace=wrap;html=1;fontFamily=Consolas;fontSize=20;fontColor=#000000;" parent="25" vertex="1">
                    <mxGeometry y="30" width="550" height="30" as="geometry"/>
                </mxCell>
                <mxCell id="28" value="repeats: int" style="text;strokeColor=none;fillColor=none;align=left;verticalAlign=middle;spacingLeft=4;spacingRight=4;overflow=hidden;points=[[0,0.5],[1,0.5]];portConstraint=eastwest;rotatable=0;whiteSpace=wrap;html=1;fontFamily=Consolas;fontSize=20;fontColor=#000000;" parent="25" vertex="1">
                    <mxGeometry y="60" width="550" height="30" as="geometry"/>
                </mxCell>
                <mxCell id="59" value="Diagrams" style="ellipse;whiteSpace=wrap;html=1;fontFamily=Consolas;fontSize=16;fillColor=#00CC00;" vertex="1" parent="1">
                    <mxGeometry x="425" y="230" width="80" height="80" as="geometry"/>
                </mxCell>
                <mxCell id="61" value="Diagrams.get_string" style="ellipse;whiteSpace=wrap;html=1;fontFamily=Consolas;fontSize=16;fillColor=#00CC00;" vertex="1" parent="1">
                    <mxGeometry x="600" y="310" width="190" height="60" as="geometry"/>
                </mxCell>
                <mxCell id="69" style="edgeStyle=orthogonalEdgeStyle;html=1;exitX=1;exitY=0.5;exitDx=0;exitDy=0;strokeWidth=2;fontFamily=Helvetica;fontSize=16;fontColor=#F5F5F5;" edge="1" parent="1" source="65" target="67">
                    <mxGeometry relative="1" as="geometry">
                        <Array as="points">
                            <mxPoint x="760" y="490"/>
                            <mxPoint x="760" y="760"/>
                        </Array>
                    </mxGeometry>
                </mxCell>
                <mxCell id="65" value="get" style="ellipse;whiteSpace=wrap;html=1;strokeColor=#100f0f;fontFamily=Consolas;fontSize=20;fontColor=#000000;fillColor=#fa6800;gradientColor=#e3c800;gradientDirection=west;" vertex="1" parent="1">
                    <mxGeometry y="460" width="190" height="60" as="geometry"/>
                </mxCell>
                <mxCell id="67" value="is_valid" style="ellipse;whiteSpace=wrap;html=1;strokeColor=#100f0f;fontFamily=Consolas;fontSize=20;fontColor=#000000;fillColor=#fa6800;" vertex="1" parent="1">
                    <mxGeometry x="10" y="730" width="190" height="60" as="geometry"/>
                </mxCell>
                <mxCell id="68" style="edgeStyle=none;html=1;strokeWidth=2;fontFamily=Consolas;fontSize=20;fontColor=#000000;" edge="1" parent="1" source="67" target="25">
                    <mxGeometry relative="1" as="geometry">
                        <mxPoint x="202.5187083340818" y="648.3308388887892" as="sourcePoint"/>
                        <mxPoint x="280" y="638" as="targetPoint"/>
                    </mxGeometry>
                </mxCell>
                <mxCell id="71" value="__setitem__" style="ellipse;whiteSpace=wrap;html=1;strokeColor=#100f0f;fontFamily=Consolas;fontSize=20;fontColor=#000000;fillColor=#fa6800;gradientColor=#18141d;gradientDirection=west;" vertex="1" parent="1">
                    <mxGeometry x="10" y="620" width="190" height="60" as="geometry"/>
                </mxCell>
                <mxCell id="73" style="html=1;exitX=1;exitY=0.5;exitDx=0;exitDy=0;strokeWidth=2;fontFamily=Helvetica;fontSize=16;fontColor=#F5F5F5;" edge="1" parent="1" source="72" target="25">
                    <mxGeometry relative="1" as="geometry"/>
                </mxCell>
                <mxCell id="72" value="add_validity_check" style="ellipse;whiteSpace=wrap;html=1;strokeColor=#100f0f;fontFamily=Consolas;fontSize=20;fontColor=#000000;fillColor=#fa6800;gradientColor=#18141d;gradientDirection=west;" vertex="1" parent="1">
                    <mxGeometry y="800" width="240" height="60" as="geometry"/>
                </mxCell>
                <mxCell id="76" style="edgeStyle=none;html=1;strokeWidth=2;fontFamily=Helvetica;fontSize=16;fontColor=#F5F5F5;" edge="1" parent="1" source="75" target="77">
                    <mxGeometry relative="1" as="geometry">
                        <mxPoint x="340" y="970" as="targetPoint"/>
                    </mxGeometry>
                </mxCell>
                <mxCell id="79" style="edgeStyle=none;html=1;strokeWidth=2;fontFamily=Helvetica;fontSize=16;fontColor=#F5F5F5;" edge="1" parent="1" source="75" target="78">
                    <mxGeometry relative="1" as="geometry"/>
                </mxCell>
                <mxCell id="75" value="#display_configuration" style="ellipse;whiteSpace=wrap;html=1;strokeColor=#100f0f;fontFamily=Consolas;fontSize=20;fontColor=#000000;fillColor=#fa6800;gradientColor=#11c600;" vertex="1" parent="1">
                    <mxGeometry x="320" y="980" width="300" height="60" as="geometry"/>
                </mxCell>
                <mxCell id="80" style="edgeStyle=orthogonalEdgeStyle;html=1;exitX=0;exitY=0.5;exitDx=0;exitDy=0;strokeWidth=2;fontFamily=Helvetica;fontSize=16;fontColor=#F5F5F5;" edge="1" parent="1" source="77" target="71">
                    <mxGeometry relative="1" as="geometry">
                        <Array as="points">
                            <mxPoint x="-20" y="960"/>
                            <mxPoint x="-20" y="650"/>
                        </Array>
                    </mxGeometry>
                </mxCell>
                <mxCell id="77" value="configure scan" style="ellipse;whiteSpace=wrap;html=1;strokeColor=#100f0f;fontFamily=Consolas;fontSize=20;fontColor=#000000;fillColor=#fa6800;gradientColor=#11c600;" vertex="1" parent="1">
                    <mxGeometry x="86" y="930" width="200" height="60" as="geometry"/>
                </mxCell>
                <mxCell id="78" value="see configuration" style="ellipse;whiteSpace=wrap;html=1;strokeColor=#100f0f;fontFamily=Consolas;fontSize=20;fontColor=#000000;fillColor=#09ca00;gradientColor=none;" vertex="1" parent="1">
                    <mxGeometry x="86" y="1020" width="200" height="60" as="geometry"/>
                </mxCell>
                <mxCell id="81" style="edgeStyle=orthogonalEdgeStyle;html=1;strokeWidth=2;fontFamily=Helvetica;fontSize=16;fontColor=#F5F5F5;" edge="1" parent="1" source="78" target="20">
                    <mxGeometry relative="1" as="geometry">
                        <mxPoint x="180" y="970" as="sourcePoint"/>
                        <mxPoint x="20" y="660" as="targetPoint"/>
                        <Array as="points">
                            <mxPoint x="-50" y="1050"/>
                            <mxPoint x="-50" y="580"/>
                        </Array>
                    </mxGeometry>
                </mxCell>
                <mxCell id="85" style="edgeStyle=orthogonalEdgeStyle;html=1;exitX=0;exitY=0.5;exitDx=0;exitDy=0;strokeWidth=2;fontFamily=Helvetica;fontSize=16;fontColor=#F5F5F5;" edge="1" parent="1" source="84" target="75">
                    <mxGeometry relative="1" as="geometry"/>
                </mxCell>
                <mxCell id="84" value="Configure" style="shape=image;verticalLabelPosition=bottom;labelBackgroundColor=default;verticalAlign=top;aspect=fixed;imageAspect=0;image=data:image/png,iVBORw0KGgoAAAANSUhEUgAAAJIAAABNCAYAAABNEz10AAAEj0lEQVR4nO3cPUhbexzG8ScvNmpCaap1iEJjfSGtLhXBoS4qBlwkg1B1qUWhbg4KQkC4FBTFpQ7xBUonV1EUERWXoojpJCW+lCLYpWlItL41UYjpIPfAubXewv0lOd7zfKbzFvkhXzznHw4a3G53AkT/kTHdA9D/A0MiEQyJRDAkEsGQSARDIhEMiUQwJBLBkEgEQyIRDIlEMCQSwZBIBEMiEQyJRDAkEsGQSARDIhEMiUQwJBLBkEgEQyIRDIlEMCQSwZBIBEMiEQyJRDAkEsGQSARDusbjx4/h8XhgtVqVYy6XCw0NDbh3714aJ9MuA/+tjVpzczNevnwJAPj8+TMGBwdRVFSEnp4eZGRkIBaLob29HeFwOM2Taos53QNoTVVVlbJdXFyMt2/fqs5nZmbi6dOnWF5eTvVomsaQAJSWliIWi6GgoAAul+tfr29sbMTu7i6sViuCwSAODw9TMKW26f7W1tLSgra2NtWxr1+/Ym5uDh8+fEAoFEJWVhby8/NRX1+P2tpa3LlzR7n28PAQXV1d+PbtW6pH1xRdh2Q0GjEzMwOLxaIcW1hYwOjoKC4uLq79zKNHj9DX1weHw6Ecm52dhc/nS/q8WqbrVdvl5SWWlpaU/ZWVFbx58+a3EQHA3t4eent7cXR0pBxbX19P6py3ga5DAoBgMAgAOD4+xsjIyB99JhQKYWxsDACQSCTw8ePHpM13W+g2JIvFghcvXihL/cXFRZyfn6uuaWpqwtTUFCYmJlBYWKg69/79e0QiERgMBrx+/RpOpzNls2uRbkPyeDxobW2F2Xy1cN3Z2VGdf/DgATo6OmCz2eB0OtHZ2ak6H4/H8enTJwBARUUFfD4fbDZbaobXIN2GlJ2drdr//v27at9gMKj2jcZff1UHBwfKttlsRlZWluCEt4tuQ/L7/aoH5vv376vOh0IhvHv3Dqenp/jy5QvGx8d/+Rm5ubnK9urqKiKRSPIG1jhdL/+tViu8Xi8qKysxPT19bSy/YzabMTk5Cbvdjr6+Pvj9/iROqn26/YsEAGdnZ9jY2AAA1NfX/3K7u0ltbS3sdjsSiQS2traSNeKtoeuQAKCmpgYAYLPZ0N3d/UefcTgcePXqFYCrZ6m6urqkzXdb6Dokk8mkWtZXV1fD6/Xe+ND85MkTDA8Pq1ZoeXl5SZ3zNjAVFRX9le4h0iWRSCAcDuPZs2fKMafTCbfbDZvNhng8DgDIyclBWVkZ2tra0NHRoXpPKRgMYmho6MZvw/VA1w/bf3v48CGi0SgcDgcGBgZgMpluvD4QCKC/vx93795FOBzGyclJiibVLr5GAmB/fx/A1ZJ/e3sb5eXlN14/Pz+PSCSi6+X+P+n6Gek6a2trynYgEMDz58/h9XqVW1c0GsXm5ma6xtMs3tquUVJSApfLhZWVFfz48QPA1ctvTqcTGxsbqi8y6QpDIhG8tZEIhkQiGBKJYEgkgiGRCIZEIhgSiWBIJIIhkQiGRCIYEolgSCSCIZEIhkQiGBKJYEgkgiGRCIZEIhgSiWBIJIIhkQiGRCIYEolgSCSCIZGIn0VjMXNjEGrDAAAAAElFTkSuQmCC;fontFamily=Consolas;fontSize=25;" vertex="1" parent="1">
                    <mxGeometry x="684" y="971.5" width="146" height="77" as="geometry"/>
                </mxCell>
            </root>
        </mxGraphModel>
    </diagram>
</mxfile>
